<?xml version="1.0" encoding="UTF-8" standalone="no"?>
<!-- Created with Inkscape (http://www.inkscape.org/) -->

<svg
        xmlns:dc="http://purl.org/dc/elements/1.1/"
        xmlns:cc="http://creativecommons.org/ns#"
        xmlns:rdf="http://www.w3.org/1999/02/22-rdf-syntax-ns#"
        xmlns:svg="http://www.w3.org/2000/svg"
        xmlns="http://www.w3.org/2000/svg"
        xmlns:sodipodi="http://sodipodi.sourceforge.net/DTD/sodipodi-0.dtd"
        xmlns:inkscape="http://www.inkscape.org/namespaces/inkscape"
        version="1.1"
        width="100%"
        height="100%"
        viewBox="0 0 500 500"
        id="svg2"
        inkscape:version="0.48.5 r10040"
        sodipodi:docname="hackerfleet.svg">
    <title
            id="title3757">Hackerfleet Logo
    </title>
    <sodipodi:namedview
            pagecolor="#ffffff"
            bordercolor="#666666"
            borderopacity="1"
            objecttolerance="10"
            gridtolerance="10"
            guidetolerance="10"
            inkscape:pageopacity="0"
            inkscape:pageshadow="2"
            inkscape:window-width="1916"
            inkscape:window-height="1168"
            id="namedview9"
            showgrid="false"
            fit-margin-top="0"
            fit-margin-left="0"
            fit-margin-right="0"
            fit-margin-bottom="0"
            inkscape:zoom="0.58163894"
            inkscape:cx="-115.8125"
            inkscape:cy="260.79095"
            inkscape:window-x="0"
            inkscape:window-y="0"
            inkscape:window-maximized="0"
            inkscape:current-layer="svg2"/>
    <defs
            id="defs4"/>
    <metadata
            id="metadata7">
        <rdf:RDF>
            <cc:Work
                    rdf:about="">
                <dc:format>image/svg+xml</dc:format>
                <dc:type
                        rdf:resource="http://purl.org/dc/dcmitype/StillImage"/>
                <dc:title>Hackerfleet Logo</dc:title>
                <dc:date>2011-08</dc:date>
                <dc:creator>
                    <cc:Agent>
                        <dc:title>Hackerfleet</dc:title>
                    </cc:Agent>
                </dc:creator>
                <dc:rights>
                    <cc:Agent>
                        <dc:title>BY-NC-SA-3.0</dc:title>
                    </cc:Agent>
                </dc:rights>
                <dc:publisher>
                    <cc:Agent>
                        <dc:title>Hackerfleet</dc:title>
                    </cc:Agent>
                </dc:publisher>
                <dc:subject>
                    <rdf:Bag>
                        <rdf:li>Logo Hackerfleet</rdf:li>
                    </rdf:Bag>
                </dc:subject>
                <dc:description>Uncolored Hackerfleet Logo

                    See github.com/Hackerfleet/hfos for more information
                </dc:description>
                <cc:license
                        rdf:resource="http://creativecommons.org/licenses/by-nc-sa/3.0/"/>
            </cc:Work>
            <cc:License
                    rdf:about="http://creativecommons.org/licenses/by-nc-sa/3.0/">
                <cc:permits
                        rdf:resource="http://creativecommons.org/ns#Reproduction"/>
                <cc:permits
                        rdf:resource="http://creativecommons.org/ns#Distribution"/>
                <cc:requires
                        rdf:resource="http://creativecommons.org/ns#Notice"/>
                <cc:requires
                        rdf:resource="http://creativecommons.org/ns#Attribution"/>
                <cc:prohibits
                        rdf:resource="http://creativecommons.org/ns#CommercialUse"/>
                <cc:permits
                        rdf:resource="http://creativecommons.org/ns#DerivativeWorks"/>
                <cc:requires
                        rdf:resource="http://creativecommons.org/ns#ShareAlike"/>
            </cc:License>
        </rdf:RDF>
    </metadata>
    <g
            id="hflogosvg"
            class="hflogosvg"
            style="fill:#ffffff">
        <desc
                id="desc3766">A modified compass rose with a mouse pointer pointing to the right instead of a needle.
            The very simplified compass rose has pointy corners into the four major directions.
            A thin circle is located halfway between the centered cursor and the outer compass rose.
        </desc>
        <title
                id="title3764">Hackerfleet Logo
        </title>
        <path
                d="m 247.90234,499.5635 c -0.69378,-0.3241 -1.71573,-1.1303 -2.27097,-1.7917 -0.73597,-0.8766 -24.16133,-45.1159 -24.73364,-46.7099 -0.0456,-0.1272 -1.74886,-0.503 -3.78491,-0.8352 C 162.41047,441.3023 113.66778,410.227 82.244481,364.2431 65.62791,339.9269 54.773527,312.9508 49.804126,283.6198 c -0.420521,-2.482 -0.802339,-4.5377 -0.848468,-4.5682 -0.04616,-0.03 -10.275693,-5.3644 -22.73232,-11.8531 C 13.76671,260.7097 3.1812732,255.1206 2.7001408,254.7782 c -0.4811325,-0.3425 -1.278449,-1.1799 -1.77181469,-1.861 -1.75662327,-2.4249 -0.965223,-5.5935 1.90807489,-7.6394 0.5560725,-0.396 11.069096,-5.9646 23.362254,-12.3747 12.293159,-6.4101 22.467719,-11.7713 22.610112,-11.9137 0.142392,-0.1424 0.660655,-2.5998 1.151679,-5.461 10.101347,-58.8587 45.862144,-110.3259 97.824784,-140.789895 19.93979,-11.6901 43.20035,-20.2571 66.09639,-24.3438 2.45743,-0.4386 5.0163,-0.8971 5.68638,-1.0189 l 1.2183,-0.2214 11.9722,-22.9496 C 245.32893,2.1085048 245.94404,1.0853048 248.33553,0.29610472 c 2.32523,-0.76739996 4.71068,0.2986 6.46999,2.89120008 0.48529,0.7152 6.13103,11.3679002 12.54611,23.6727002 l 11.66374,22.3723 4.94938,0.8359 c 55.12933,9.3111 104.16108,41.3508 135.24931,88.378495 12.65057,19.1367 21.90021,40.1557 27.45302,62.3844 1.20264,4.8144 3.01048,13.6485 3.58803,17.5334 l 0.37045,2.4916 22.98801,11.991 c 18.48182,9.6406 23.26929,12.2629 24.42297,13.3778 2.6217,2.5334 2.61791,5.1753 -0.0111,7.7035 -1.15707,1.1127 -5.98189,3.75 -24.42368,13.3502 l -22.98176,11.9636 -0.68564,4.2138 c -5.54212,34.0611 -20.32546,66.8356 -42.55566,94.3454 -8.47781,10.4912 -20.21749,22.133 -30.99595,30.7375 -26.9912,21.5473 -59.01372,35.8725 -92.82128,41.5235 -2.43552,0.4071 -4.48053,0.7925 -4.5445,0.8564 -0.0639,0.064 -5.46339,10.3639 -11.99873,22.8888 -6.53535,12.5248 -12.21785,23.2122 -12.62783,23.7496 -1.69229,2.2187 -4.30413,3.0264 -6.48811,2.0063 z m 9.88947,-74.1382 c 25.41038,-0.6909 53.12068,-8.3926 76.40473,-21.2357 43.7608,-24.1378 74.9978,-65.0113 86.57591,-113.2842 3.32954,-13.882 4.66105,-25.8192 4.62281,-41.445 -0.0265,-10.8536 -0.36398,-15.8326 -1.69158,-24.9595 -4.37355,-30.0668 -16.57361,-58.5289 -35.48042,-82.7739 -8.86496,-11.368 -20.86828,-23.1423 -32.62709,-32.0046 -24.61294,-18.550095 -53.40256,-30.222095 -83.93799,-34.030395 -13.67557,-1.7056 -29.66825,-1.7063 -43.60207,0 -43.90295,5.3699 -84.675,27.662395 -113.1757,61.879895 -8.98387,10.7859 -15.955912,21.5022 -22.376075,34.3929 -10.363298,20.8079 -16.183847,42.2 -17.919548,65.8593 -0.487172,6.6406 -0.219427,24.2387 0.460703,30.2809 2.511601,22.3129 8.29237,42.0117 17.90448,61.0121 29.43086,58.1763 88.48892,95.3706 153.28649,96.5385 1.949,0.035 4.02896,0.034 4.62213,0 0.59317,-0.036 3.71314,-0.1381 6.93322,-0.2256 z"
                id="path2910-1"
                style="fill-opacity:1;fill:#ffffff"
                inkscape:connector-curvature="0"/>
        <path
                d="m 240.31078,390.2869 c -19.74292,-1.6569 -35.92279,-6.0279 -52.41339,-14.1595 -40.9361,-20.1857 -69.68017,-59.0972 -76.69816,-103.8278 -1.36051,-8.6715 -1.78658,-15.3109 -1.60024,-24.9374 0.29939,-15.4707 2.37503,-27.6718 7.12919,-41.9073 8.96785,-26.8528 25.95955,-50.4438 48.7042,-67.6203 47.06374,-35.542 112.13972,-37.7134 161.31218,-5.3826 21.24736,13.9701 37.85003,32.655 48.98685,55.1307 1.8475,3.7285 4.00939,8.443 4.80418,10.4768 11.0303,28.2244 12.89068,58.5079 5.37599,87.5122 -3.76382,14.5272 -9.98308,28.6107 -18.09802,40.9829 -24.28505,37.0254 -63.27361,60.181 -107.13314,63.6271 -3.61647,0.2842 -17.3896,0.3553 -20.36964,0.1052 z m 21.72399,-7.521 c 41.92437,-3.7422 80.4864,-27.9446 102.08192,-64.069 10.01196,-16.7476 15.8097,-33.9336 18.29576,-54.2329 0.77045,-6.2909 0.77624,-22.2917 0.0105,-28.7186 -1.88386,-15.8093 -5.84197,-29.6553 -12.3587,-43.2325 -14.35971,-29.9175 -39.63824,-53.6106 -70.43609,-66.0184 -31.42583,-12.6608 -67.20188,-12.7791 -98.60533,-0.3261 -27.08929,10.7421 -50.31036,30.4394 -65.31766,55.4055 -24.3814,40.5609 -25.28463,91.8069 -2.34372,132.9769 8.68981,15.5948 20.55979,29.4645 34.84432,40.7146 7.38908,5.8194 17.62462,12.0228 26.36768,15.9806 21.35277,9.6659 44.31093,13.5863 67.46143,11.5199 z"
                id="path2910-9"
                style="fill-opacity:1;fill:#ffffff"
                inkscape:connector-curvature="0"/>
        <path
                d="m 195.23892,316.4239 c -0.75547,-0.3518 -3.21869,-2.5856 -6.36358,-5.7709 -5.24938,-5.3167 -5.81454,-6.1385 -5.79954,-8.4323 0.0145,-2.2157 0.83041,-3.1211 21.03163,-23.3402 l 19.77909,-19.7965 -9.89933,-9.9392 c -5.44462,-5.4665 -10.11839,-10.3752 -10.38616,-10.9082 -0.94926,-1.8895 -0.96932,-3.3314 -0.0711,-5.1117 0.45029,-0.8925 1.20224,-1.922 1.67102,-2.2879 0.46878,-0.3658 6.9469,-3.3972 14.39586,-6.7366 67.14391,-30.1002 90.50738,-40.4749 91.89688,-40.8072 3.91744,-0.9368 6.08306,1.1383 5.25595,5.0361 -0.18366,0.8656 -8.30886,19.392 -18.05604,41.1699 -9.74717,21.778 -20.23363,45.2121 -23.30324,52.076 -4.69208,10.4917 -5.78028,12.6801 -6.83104,13.7377 -1.6921,1.7031 -3.43193,2.1533 -5.72198,1.4806 -1.56218,-0.4589 -2.22848,-1.0565 -11.7503,-10.5406 l -10.0942,-10.0542 -20.10369,20.0715 c -17.24977,17.2221 -20.27865,20.1187 -21.33625,20.4046 -1.75314,0.474 -2.90091,0.4072 -4.31399,-0.2509 z"
                id="path2910-95"
                style="fill-opacity:1;fill:#ffffff"
                inkscape:connector-curvature="0"/>
    </g>
</svg>
